<svg width="24" height="24" viewBox="0 0 24 24" fill="none" xmlns="http://www.w3.org/2000/svg">
    <path
        d="M20.8387 12.5114C20.764 12.4094 18.9829 9.988 16.525 8.33286C15.2506 7.47314 13.6432 7 11.9998 7C10.3573 7 8.74985 7.47314 7.47275 8.33286C5.01484 9.988 3.23553 12.4094 3.16083 12.5114C3.05612 12.655 3 12.8256 3 13.0004C3 13.1752 3.05612 13.3459 3.16083 13.4894C3.23553 13.5914 5.01484 16.0129 7.47275 17.668C8.74985 18.5269 10.3573 19 11.9998 19C13.6432 19 15.2506 18.5269 16.525 17.6671C18.9829 16.012 20.764 13.5906 20.8387 13.4886C20.9437 13.3453 21 13.1747 21 13C21 12.8253 20.9437 12.6547 20.8387 12.5114ZM11.9998 16C10.2592 16 8.84975 14.6543 8.84975 13C8.84975 11.3423 10.2592 10 11.9998 10C13.7368 10 15.1498 11.3423 15.1498 13C15.1498 14.6543 13.7368 16 11.9998 16ZM13.7998 13C13.7998 13.9446 12.9916 14.7143 11.9998 14.7143C11.6438 14.7143 11.2957 14.6137 10.9997 14.4254C10.7037 14.237 10.473 13.9693 10.3368 13.656C10.2005 13.3428 10.1649 12.9981 10.2343 12.6656C10.3038 12.333 10.4752 12.0276 10.727 11.7878C10.9787 11.5481 11.2994 11.3848 11.6486 11.3187C11.9978 11.2525 12.3597 11.2865 12.6886 11.4162C13.0175 11.546 13.2986 11.7657 13.4964 12.0476C13.6942 12.3295 13.7998 12.6609 13.7998 13Z"
        fill="white" />
</svg>
    